<svg width="28" height="38" viewBox="0 0 28 38" fill="none" xmlns="http://www.w3.org/2000/svg">
<path d="M13.7476 0C6.16845 0 3.25e-06 6.14623 0 13.695C-4.75e-06 26.9776 12.9736 37.0752 12.9736 37.0752C13.4294 37.4368 14.0755 37.4368 14.5312 37.0752C14.5312 37.0752 27.5074 26.9776 27.5073 13.695C27.5073 6.14623 21.3267 0 13.7476 0ZM13.7476 7.47243C17.1845 7.47243 20.0049 10.2718 20.0049 13.695C20.0049 17.1183 17.1845 19.9249 13.7476 19.9249C10.3106 19.9249 7.49998 17.1183 7.5 13.695C7.50001 10.2718 10.3106 7.47243 13.7476 7.47243Z" fill="#0070B8"/>
</svg>
