<svg width="40" height="30" viewBox="0 0 40 30" fill="none" xmlns="http://www.w3.org/2000/svg">
<path d="M34.4466 0H5.55336C2.48648 0 0 2.47654 0 5.53115V23.738C0 26.7926 2.48648 29.2692 5.55336 29.2692H34.4466C37.5134 29.2692 40 26.7926 40 23.738V5.53115C40 2.47654 37.5134 0 34.4466 0ZM13.9192 19.7484L6.14266 26.3563C5.59414 26.8225 4.76953 26.7577 4.30148 26.2108C3.83336 25.6645 3.89844 24.8432 4.44758 24.377L12.2241 17.7692C12.7726 17.3029 13.5971 17.3677 14.0652 17.9147C14.5334 18.4609 14.4683 19.2822 13.9192 19.7484ZM20 17.2363C18.9598 17.2338 17.9516 16.8895 17.1633 16.2105L17.1639 16.2111L17.1614 16.2093C17.162 16.2099 17.1627 16.2099 17.1633 16.2105L5.23141 5.89578C4.68609 5.42439 4.62805 4.60315 5.10063 4.06072C5.57383 3.51759 6.39844 3.45978 6.94297 3.93046L18.8782 14.2478C19.1333 14.4739 19.5536 14.6372 20 14.6346C20.4458 14.6359 20.859 14.4771 21.1281 14.2433L21.1339 14.2383L33.057 3.93054C33.6016 3.45986 34.4262 3.51767 34.8994 4.0608C35.3719 4.60315 35.3139 5.42447 34.7686 5.89585L22.8334 16.2137C22.0477 16.8856 21.0408 17.235 20 17.2363ZM35.6991 26.2108C35.2309 26.7577 34.4063 26.8225 33.858 26.3563L26.0814 19.7484C25.5323 19.2822 25.4673 18.4609 25.9354 17.9147C26.4034 17.3677 27.228 17.303 27.7765 17.7692L35.553 24.377C36.1021 24.8432 36.1672 25.6645 35.6991 26.2108Z" fill="#0070B8"/>
</svg>
