<svg width="29" height="28" viewBox="0 0 29 28" fill="none" xmlns="http://www.w3.org/2000/svg">
<path d="M0.00125 6.9925C0.00125 8.165 0.43125 9.45375 0.9775 10.8212C1.52375 12.1887 2.2275 13.4775 2.775 14.4537C4.26 17.0325 6.17375 19.5712 8.36125 21.68C10.5487 23.7887 13.1275 25.5475 16.0175 26.6025C17.6975 27.2662 19.3775 28.0087 21.2525 28.0087C22.19 28.0087 23.5187 27.6575 24.7287 27.1488C25.9012 26.6413 26.955 25.86 27.3462 24.9225C27.5025 24.5712 27.6975 24.1025 27.815 23.555C27.9325 23.0475 28.01 22.5387 28.01 22.1875C28.01 21.9925 28.01 21.7962 27.9712 21.7575C27.8537 21.5225 27.58 21.3275 27.2675 21.1325C26.5637 20.7812 26.4475 20.6637 25.3925 20.0387C24.2987 19.4137 23.1663 18.71 22.1887 18.2025C21.72 17.9288 21.4075 17.8113 21.29 17.8113C20.665 17.8113 19.8838 18.6712 19.22 19.6087C18.5163 20.5462 17.735 21.4062 17.1888 21.4062C16.915 21.4062 16.6413 21.2887 16.3288 21.0938C16.0163 20.8988 15.7038 20.7425 15.5088 20.625C12.0713 18.6712 9.76625 16.3675 7.81375 12.9688C7.57875 12.5775 7.0325 11.7575 7.0325 11.3275C7.0325 10.82 7.73625 10.2338 8.43875 9.60875C9.1025 9.0225 9.80625 8.32 9.80625 7.46C9.80625 7.3425 9.7275 6.99125 9.57125 6.48375C9.22 5.4675 8.75125 4.29625 8.36 3.16375C8.165 2.61625 8.00875 2.22625 7.96875 2.03125C7.89 1.91375 7.85125 1.7575 7.8125 1.5625C7.77375 1.3675 7.695 1.21125 7.65625 1.055C7.53875 0.70375 7.34375 0.43 7.14875 0.27375C6.95375 0.195 6.485 0.0787496 6.01625 0.0387496C5.5475 0.0387496 5 0 4.76625 0C4.64875 0 4.4925 -4.23752e-07 4.33625 0.0387496H3.82875C2.57875 0.58625 1.68 1.68 1.01625 2.96875C0.39125 4.2575 0 5.70375 0 6.9925H0.00125Z" fill="#0070B8"/>
</svg>
